PathFileType	4	(X/Y/Z)	17_2_103_p1_0-335.trc
DataRate	CameraRate	NumFrames	NumMarkers	Units	OrigDataRate	OrigDataStartFrame	OrigNumFrames
59.0	59.0	5	27	m	59.0	210	336
Frame#	Time	RHip			RKnee			RAnkle			RBigToe			RSmallToe			RHeel			LHip			LKnee			LAnkle			LBigToe			LSmallToe			LHeel			Neck			Head			Nose			RShoulder			RElbow			RWrist			RThumb			RIndex			RPinky			LShoulder			LElbow			LWrist			LThumb			LIndex			LPinky			
		X1	Y1	Z1	X2	Y2	Z2	X3	Y3	Z3	X4	Y4	Z4	X5	Y5	Z5	X6	Y6	Z6	X7	Y7	Z7	X8	Y8	Z8	X9	Y9	Z9	X10	Y10	Z10	X11	Y11	Z11	X12	Y12	Z12	X13	Y13	Z13	X14	Y14	Z14	X15	Y15	Z15	X16	Y16	Z16	X17	Y17	Z17	X18	Y18	Z18	X19	Y19	Z19	X20	Y20	Z20	X21	Y21	Z21	X22	Y22	Z22	X23	Y23	Z23	X24	Y24	Z24	X25	Y25	Z25	X26	Y26	Z26	X27	Y27	Z27	
210	3.559322033898305	0.31975567241746633	0.4997323258375442	0.8337606324645006	0.29681151505550596	0.48161291289308594	1.2484142844068766	0.2348689731157618	0.710057702007943	1.6895249330993523	0.23074617711508097	0.4940511405531412	1.7104635007857	0.2887765479761984	0.5492505481981175	1.7221069617197085	0.20425308397464026	0.7984020629018905	1.7530097088697538	0.12419982773714346	0.5315554198360198	0.86178916167686	0.11066866110690562	0.5230891731835885	1.245258950257588	0.03810577537480525	0.6891894463188224	1.6972177637225205	0.08146190164846964	0.4538331111084498	1.6932965697343405	0.022677090668976146	0.5161356693928446	1.7164964412382875	0.042778861417139685	0.7689494080786777	1.7706257808906247	0.12015184164904838	0.5386912888188162	0.2472856512993337	0.06956562250942355	0.42080802377492865	0.001656340880139687	0.09108001986495917	0.3997752580032562	0.149752582889001	0.27371297168199715	0.48483725010588585	0.2764424621593054	0.24607832429547724	0.29538382456473444	0.3204092638526181	0.008373232443089738	0.3324683185480311	0.32069926333167426	-0.1163677486582319	0.3712852502276929	0.3812565540199502	-0.12710047659237395	0.36094572982816675	0.34520663740532465	-0.10169379425451995	0.3452784462141971	0.33259088032644274	0.00839775579882068	0.539928144763043	0.38611090500907425	-0.02851781992038067	0.6205387612754548	0.6601196035047249	-0.12457545810250667	0.5782589703880483	0.9012175359972214	-0.2151096982682576	0.5476619248941592	0.9687837912619408	-0.21298427390556404	0.5263583046775612	0.9929387496968797	-0.17256995582310547	0.5325054135122258	1.0005905909776929
211	3.5762711864406778	0.319771949629456	0.49963748895872695	0.8339712431844712	0.29442874433370103	0.4685113657835707	1.2444328653636614	0.23558273152975115	0.7123483334572147	1.6947957505732054	0.2287667693148292	0.481617775534872	1.7045403159268093	0.2888657325694647	0.5492903870363065	1.7221086059863548	0.20612610828118288	0.8002153093565297	1.7540041473086283	0.12270297496929339	0.5183085532681931	0.8595355150575931	0.10993125433533542	0.5232574182426657	1.2497559368719338	0.03688994925955345	0.6897186135295992	1.7025945152130917	0.08151238003321785	0.4537172020769493	1.693280177072403	0.023695132610346902	0.5302918551963092	1.7232917901734826	0.040738509663886466	0.778305018236828	1.7755610118209573	0.1200606964155368	0.5388735087332692	0.25048548148707844	0.05685206592610912	0.44534242598765905	0.0072787100465220595	0.085443425485436	0.41321798100897766	0.15326778749920691	0.26851521233895803	0.49825551070514573	0.277403247614606	0.24169551793776584	0.30567126435130215	0.3252635888464801	0.00959740308924065	0.29621600863375835	0.3445115333119274	-0.11768169487943357	0.35956893204639967	0.3958543002271607	-0.1279141851906501	0.353732687279062	0.38641571728724944	-0.11092176454833028	0.3332097360292988	0.3830706179926771	0.008251758585908294	0.5400350636114473	0.39690448231790554	-0.02850681971107432	0.6242040616476652	0.6724382775930459	-0.11967999957188248	0.5964699378118203	0.909688748460223	-0.19638157830968436	0.5275914766230362	0.9713593492474815	-0.22435275719700035	0.5627331147868687	1.0110262754276007	-0.17307830736215996	0.5348652271661583	1.009411798505542
212	3.593220338983051	0.3169500619131757	0.4875266381772905	0.8356520450666926	0.2982660885291051	0.4704353328421731	1.244849692945403	0.23559882740146823	0.7122450541082939	1.6947924721216014	0.2288532958492337	0.4816621406549343	1.7045266902701894	0.2899347132235566	0.5519367062894982	1.7270919456039366	0.2061349319696943	0.8001313420486414	1.753946837199042	0.12302749254455898	0.5177517628468348	0.8636467931629409	0.11118012721298329	0.5220915038521547	1.2490714501070057	0.03736939471714578	0.6885821553089473	1.7066460081429375	0.0815270524529357	0.4536061172330417	1.6932117082811178	0.02271620352237027	0.5160683507588075	1.7165466312242281	0.0404240351541585	0.7782810963184805	1.7752172546950777	0.11677951421948565	0.5372416947337504	0.25841010352022353	0.04749937153464849	0.4566469426346782	0.010202017725512711	0.08539630556372632	0.4142831559941528	0.15682191954732552	0.27921700804034044	0.47200617757793467	0.28005972398801654	0.23326747338028211	0.32601991679969955	0.33999028468397663	-0.014788908622939599	0.3621588469066898	0.38062451463425917	-0.11711006987293093	0.36004993844222544	0.4151568315514428	-0.1287106427589137	0.3551750723914177	0.4036046252930219	-0.10771143393845517	0.3491618984084027	0.39829135127203474	0.002565809739249204	0.5678915463121654	0.4062346142769305	-0.029533055300729187	0.6248300832087866	0.6799270617961005	-0.1119668268199247	0.584643238715508	0.9125099112475789	-0.19595716731119367	0.5288257796956617	0.9718573947496438	-0.22475521187427547	0.576096155135222	1.0153913875616847	-0.18018686841556733	0.5627794338896036	1.0295931021342877
213	3.610169491525424	0.31941184243594295	0.49990835030419817	0.8381607506784474	0.3003145020496195	0.4541761416379349	1.2430076689336405	0.23559291878689234	0.7124086997920269	1.6950216427083653	0.2307349902349699	0.4924525928499112	1.7099927360961225	0.2852200641906426	0.5477421753047119	1.725745142490709	0.20509688356609343	0.8010101417489028	1.759328544312999	0.12251778988190357	0.5182798908563884	0.8678118214308636	0.11034883818086043	0.5223787942270773	1.2534489933204283	0.03789517469341755	0.6856227158873116	1.6959643967447107	0.08234518817493813	0.4669748074670199	1.6997230373156336	0.02373537115908537	0.5303476808148061	1.7232092934152288	0.04061331415857565	0.7787549703881348	1.775481647623504	0.1132189265542438	0.5340730236538934	0.2583506154299095	0.037210189975228465	0.4671132672750092	0.009800164322946487	0.08497610144152294	0.4152356681927147	0.16038394012074492	0.2832452292294294	0.47299099317432247	0.2830280606185663	0.22003178519714325	0.32839948443656125	0.35805682322576654	-0.027774311997217794	0.333532559345173	0.39437765559827914	-0.12176126218114225	0.33714727818458556	0.4520321074695839	-0.15668497916801838	0.3280233805184943	0.4225027697110151	-0.1122810381613808	0.33652642550089884	0.4072758312797059	0.009045928524155693	0.55448287359854	0.4051155722891606	-0.028784042067309723	0.6258447228219873	0.6807797233812599	-0.11482866210929984	0.5814976158295603	0.9204418448812894	-0.19546573526317115	0.5429859869692064	0.9795511465397957	-0.2246605493618152	0.5750133926425612	1.0171135398496163	-0.17204046966224815	0.5493272052058067	1.0278298065311926
214	3.6271186440677967	0.31942014907007754	0.5000778948666853	0.8383213652538345	0.30039705845679565	0.45420027097065424	1.2429658889654616	0.23491120543256663	0.7101866646177663	1.6897325635346832	0.23081350109623736	0.49241753754941003	1.7099980120473466	0.28727002765880744	0.5602728717525237	1.7316982375657763	0.20433398096790162	0.7983706549137249	1.7531640948912302	0.1247247705442209	0.5312917796002993	0.8665556380901082	0.11045530797817744	0.5220824288648506	1.2534280590788203	0.03672495686643927	0.6860926375225002	1.7008450240395971	0.08229501072727845	0.4671470142920234	1.6997443591446952	0.02708694106951193	0.5175070947222846	1.7164821851440506	0.03818619688103354	0.7618468263658683	1.7636805253674928	0.1164571174539761	0.5377830622497427	0.2549595339460871	0.02732211450288636	0.4766478450296165	0.012587967855556756	0.07953635720929308	0.4018791747492273	0.16129416261680535	0.2740349657887543	0.48506763076839354	0.28104573975172065	0.20576328281743736	0.33910940063017714	0.3763760486338514	-0.03739344163720955	0.3103268170923927	0.40386570781515535	-0.12671469107144231	0.31249158542058736	0.48830171885166196	-0.17512226883438803	0.3356980118952766	0.4794929925908167	-0.12564415639613996	0.34754647751875306	0.4267350777993706	0.009561849746384191	0.5526287769336562	0.40149878385766524	-0.028723689925785924	0.626224600136162	0.6808744796439368	-0.10314839000031724	0.5695214249574352	0.9207243977192965	-0.19595397382149513	0.546268967632973	0.9887687763352558	-0.22392384937788234	0.5760001813761014	1.0273878908719776	-0.17123946104568677	0.5626560875249818	1.0433237076534116
